<svg xmlns="http://www.w3.org/2000/svg" xmlns:xlink="http://www.w3.org/1999/xlink" width="5000" zoomAndPan="magnify" viewBox="0 0 3750 899.99999" height="1200" preserveAspectRatio="xMidYMid meet" version="1.0"><defs><g/><clipPath id="b945b83136"><rect x="0" width="291" y="0" height="35"/></clipPath><clipPath id="2b2537a1a7"><path d="M 3094.292969 308.808594 L 3098.042969 308.808594 L 3098.042969 591.191406 L 3094.292969 591.191406 Z M 3094.292969 308.808594 " clip-rule="nonzero"/></clipPath><clipPath id="eeadf5ae39"><path d="M 0.292969 0.808594 L 4.042969 0.808594 L 4.042969 283.191406 L 0.292969 283.191406 Z M 0.292969 0.808594 " clip-rule="nonzero"/></clipPath><clipPath id="e4df0288da"><rect x="0" width="5" y="0" height="284"/></clipPath><clipPath id="633c5b53cd"><path d="M 3066.542969 406.078125 L 3129.542969 406.078125 L 3129.542969 493.921875 L 3066.542969 493.921875 Z M 3066.542969 406.078125 " clip-rule="nonzero"/></clipPath><clipPath id="4812b4eae8"><path d="M 0.542969 0.078125 L 63.542969 0.078125 L 63.542969 87.921875 L 0.542969 87.921875 Z M 0.542969 0.078125 " clip-rule="nonzero"/></clipPath><clipPath id="bcd25d08be"><rect x="0" width="64" y="0" height="88"/></clipPath><clipPath id="58ba696c13"><path d="M 3269.207031 332.605469 L 3456.707031 332.605469 L 3456.707031 510.355469 L 3269.207031 510.355469 Z M 3269.207031 332.605469 " clip-rule="nonzero"/></clipPath><clipPath id="a47e3cf90c"><path d="M 3342.769531 332.609375 C 3325.191406 332.574219 3309.558594 337.867188 3296.042969 348.84375 C 3281.636719 360.527344 3272.199219 375.59375 3270.5625 393.867188 C 3268.929688 411.433594 3268.894531 429.179688 3269.925781 446.75 C 3271.808594 480.292969 3302.644531 509.457031 3336.554688 510.058594 C 3368.335938 510.476562 3400.117188 510.1875 3431.71875 510.070312 C 3438.304688 501.566406 3455.929688 477.46875 3456.644531 476.050781 C 3455.757812 475.871094 3426.285156 475.988281 3396.8125 475.929688 C 3373.375 475.882812 3349.9375 476.011719 3341.238281 475.996094 C 3321.886719 475.777344 3306.296875 459.953125 3306.332031 440.609375 C 3306.359375 428.367188 3306.207031 415.945312 3306.40625 403.699219 C 3306.417969 399.617188 3306.957031 395.539062 3308.207031 391.636719 C 3312.675781 377.449219 3326.722656 367.183594 3341.992188 367.214844 C 3378.03125 367.109375 3452.246094 366.726562 3453.136719 366.550781 C 3452.78125 365.660156 3436.492188 343.09375 3428.878906 332.605469 C 3400.117188 332.726562 3371.53125 332.847656 3342.769531 332.609375 Z M 3342.769531 332.609375 " clip-rule="nonzero"/></clipPath><linearGradient x1="-0.000315427" gradientTransform="matrix(-0.356516, 177.459138, -177.545098, -0.356344, 3363.181884, 332.474496)" y1="0" x2="1.00344" gradientUnits="userSpaceOnUse" y2="0" id="4c0c7f9ce8"><stop stop-opacity="1" stop-color="rgb(9.799194%, 26.269531%, 59.999084%)" offset="0"/><stop stop-opacity="1" stop-color="rgb(1.231384%, 8.737183%, 32.328796%)" offset="1"/></linearGradient><clipPath id="4573de7d8f"><path d="M 3209.800781 333.070312 L 3244.160156 333.070312 L 3244.160156 509.976562 L 3209.800781 509.976562 Z M 3209.800781 333.070312 " clip-rule="nonzero"/></clipPath><linearGradient x1="0.00450862" gradientTransform="matrix(-0.354283, 177.480178, -176.435518, -0.356381, 3227.170186, 332.234876)" y1="0" x2="1.00166" gradientUnits="userSpaceOnUse" y2="0" id="fac98c157c"><stop stop-opacity="1" stop-color="rgb(9.761047%, 26.190186%, 59.873962%)" offset="0"/><stop stop-opacity="1" stop-color="rgb(1.239014%, 8.750916%, 32.35321%)" offset="1"/></linearGradient><clipPath id="a367757d24"><path d="M 3447.183594 332.902344 L 3634.683594 332.902344 L 3634.683594 455.152344 L 3447.183594 455.152344 Z M 3447.183594 332.902344 " clip-rule="nonzero"/></clipPath><clipPath id="7dac3de49c"><path d="M 3447.242188 333.015625 C 3447.769531 334.257812 3524.414062 434.972656 3538.71875 453.480469 C 3540.304688 455.617188 3541.546875 455.617188 3543.144531 453.488281 C 3545.09375 451.183594 3634.214844 334.101562 3634.570312 333.390625 C 3633.683594 333.035156 3607.65625 333.160156 3595.617188 332.957031 C 3593.492188 332.953125 3592.25 333.664062 3591.007812 335.257812 C 3575.210938 356.015625 3559.410156 376.769531 3543.433594 397.523438 C 3541.300781 400.363281 3540.949219 400.539062 3538.652344 397.515625 C 3522.933594 376.875 3507.21875 356.054688 3491.324219 335.234375 C 3490.441406 334.167969 3488.496094 333.277344 3487.078125 333.09375 C 3483.539062 333.085938 3470.4375 332.882812 3460.167969 332.863281 C 3453.261719 332.847656 3447.773438 333.015625 3447.242188 333.015625 Z M 3447.242188 333.015625 " clip-rule="nonzero"/></clipPath><linearGradient x1="-0.00274651" gradientTransform="matrix(-0.355539, 177.668028, -177.058348, -0.356763, 3540.905482, 333.203326)" y1="0" x2="0.687456" gradientUnits="userSpaceOnUse" y2="0" id="0b37e88c70"><stop stop-opacity="1" stop-color="rgb(9.799194%, 26.269531%, 59.999084%)" offset="0"/><stop stop-opacity="1" stop-color="rgb(3.918457%, 14.23645%, 41.009521%)" offset="1"/></linearGradient><clipPath id="721b7c80bf"><path d="M 3514.976562 444.378906 L 3566.726562 444.378906 L 3566.726562 510.378906 L 3514.976562 510.378906 Z M 3514.976562 444.378906 " clip-rule="nonzero"/></clipPath><clipPath id="a1d21c0192"><path d="M 3514.921875 510.28125 L 3566.679688 510.207031 L 3566.632812 444.375 C 3548.984375 466.046875 3532.039062 488.253906 3514.921875 510.28125 Z M 3514.921875 510.28125 " clip-rule="nonzero"/></clipPath><linearGradient x1="0.627026" gradientTransform="matrix(-0.353506, 177.920258, -176.045838, -0.35727, 3541.152082, 332.767656)" y1="0" x2="0.997999" gradientUnits="userSpaceOnUse" y2="0" id="695f9e4055"><stop stop-opacity="1" stop-color="rgb(4.394531%, 15.208435%, 42.54303%)" offset="0"/><stop stop-opacity="1" stop-color="rgb(1.246643%, 8.766174%, 32.376099%)" offset="1"/></linearGradient></defs><rect x="-375" width="4500" fill="#ffffff" y="-89.999999" height="1079.999988" fill-opacity="1"/><path fill="#868686" d="M 584.816406 421.796875 C 584.332031 420.824219 583.359375 419.855469 581.417969 418.402344 C 579.964844 417.433594 578.992188 416.949219 577.054688 416.464844 C 575.597656 415.976562 574.628906 415.492188 573.171875 415.492188 L 450.421875 415.492188 C 448.96875 415.492188 447.996094 416.464844 447.027344 417.917969 L 407.242188 487.242188 L 370.855469 487.242188 L 415.003906 410.644531 C 418.402344 405.3125 421.3125 401.433594 425.191406 399.980469 C 429.074219 398.042969 432.472656 397.554688 435.867188 397.554688 L 597.429688 397.554688 C 601.3125 397.554688 604.707031 398.042969 608.589844 398.527344 C 612.957031 399.496094 615.867188 400.464844 619.261719 402.40625 C 622.660156 403.859375 624.601562 406.28125 625.570312 408.707031 C 626.542969 411.128906 626.054688 414.523438 624.601562 418.402344 L 613.925781 436.824219 C 611.984375 440.703125 608.589844 443.609375 604.222656 446.519531 C 599.855469 448.941406 595.003906 451.367188 590.152344 452.820312 C 585.300781 454.277344 579.964844 456.214844 575.113281 456.699219 C 570.261719 457.667969 565.410156 457.667969 562.496094 457.667969 L 496.515625 457.667969 L 592.09375 486.753906 L 527.566406 486.753906 L 434.410156 457.667969 L 445.085938 438.277344 L 558.617188 438.277344 C 559.585938 438.277344 560.558594 438.277344 563.46875 437.792969 C 565.410156 437.308594 568.320312 436.824219 570.261719 435.855469 C 572.6875 434.882812 575.113281 434.398438 577.054688 432.460938 C 578.992188 431.492188 580.933594 430.035156 581.90625 428.097656 L 584.332031 423.734375 C 585.300781 424.703125 585.300781 423.25 584.816406 421.796875 Z M 584.816406 421.796875 " fill-opacity="1" fill-rule="nonzero"/><path fill="#868686" d="M 675.542969 459.609375 C 674.574219 461.0625 674.574219 462.03125 675.542969 463.972656 C 676.515625 464.941406 677.484375 465.910156 679.425781 467.363281 C 680.878906 468.335938 682.820312 468.820312 684.277344 469.304688 C 685.734375 469.789062 687.671875 469.789062 688.644531 469.789062 L 849.238281 469.789062 L 838.5625 488.210938 L 662.929688 488.210938 C 659.046875 488.210938 655.652344 487.726562 651.769531 487.242188 C 647.890625 486.269531 644.492188 485.300781 641.097656 483.363281 C 637.699219 481.421875 636.246094 479.484375 634.789062 477.058594 C 633.820312 474.636719 634.304688 471.242188 635.757812 467.363281 L 663.414062 419.371094 C 665.355469 415.492188 668.75 412.585938 673.117188 409.675781 C 677.484375 407.253906 682.335938 404.828125 687.1875 403.375 C 692.039062 401.917969 697.375 399.980469 702.226562 399.496094 C 707.082031 398.527344 711.445312 398.527344 714.84375 398.527344 L 890.476562 398.527344 L 879.800781 416.949219 L 719.210938 416.949219 C 718.238281 416.949219 716.785156 416.949219 714.359375 417.433594 C 712.417969 417.917969 709.507812 418.402344 707.566406 419.371094 C 705.140625 420.339844 702.714844 420.824219 700.773438 422.765625 C 698.832031 424.21875 696.890625 425.1875 696.40625 427.128906 Z M 869.613281 431.976562 L 858.941406 450.398438 L 691.554688 450.398438 L 702.226562 431.976562 Z M 869.613281 431.976562 " fill-opacity="1" fill-rule="nonzero"/><path fill="#868686" d="M 928.320312 459.609375 C 927.351562 461.0625 927.351562 462.03125 928.320312 463.972656 C 929.289062 464.941406 930.261719 465.910156 932.203125 467.363281 C 933.65625 468.335938 935.597656 468.820312 937.054688 469.304688 C 938.507812 469.789062 940.449219 469.789062 941.421875 469.789062 L 1102.011719 469.789062 L 1091.339844 488.210938 L 915.21875 488.210938 C 911.339844 488.210938 907.941406 487.726562 904.0625 487.242188 C 900.179688 486.269531 896.785156 485.300781 893.386719 483.363281 C 889.992188 481.421875 888.535156 479.484375 887.082031 477.058594 C 886.109375 474.636719 886.59375 471.242188 888.050781 467.363281 L 915.707031 419.371094 C 917.644531 415.492188 921.042969 412.585938 925.410156 409.675781 C 929.777344 407.253906 934.628906 404.828125 939.480469 403.375 C 944.332031 401.917969 949.667969 399.980469 954.519531 399.496094 C 959.371094 398.527344 963.738281 398.527344 967.132812 398.527344 L 1142.769531 398.527344 L 1132.09375 416.949219 L 971.5 416.949219 C 970.53125 416.949219 969.074219 416.949219 966.648438 417.433594 C 964.707031 417.917969 961.796875 418.402344 959.855469 419.371094 C 957.429688 420.339844 955.003906 420.824219 953.0625 422.765625 C 951.125 424.21875 949.183594 425.1875 948.699219 427.128906 Z M 1122.390625 431.976562 L 1111.714844 450.398438 L 944.332031 450.398438 L 955.003906 431.976562 Z M 1122.390625 431.976562 " fill-opacity="1" fill-rule="nonzero"/><path fill="#868686" d="M 1208.75 416.949219 L 1207.78125 416.949219 C 1206.324219 416.949219 1205.355469 417.917969 1204.386719 419.371094 L 1165.085938 488.210938 L 1129.183594 488.210938 L 1173.332031 411.613281 C 1176.730469 406.28125 1179.640625 402.40625 1183.523438 400.949219 C 1187.402344 399.011719 1190.800781 398.527344 1194.195312 398.527344 L 1226.21875 398.527344 C 1227.671875 398.527344 1229.613281 399.011719 1231.070312 399.496094 C 1232.523438 399.980469 1234.464844 400.464844 1235.921875 401.433594 C 1237.378906 401.917969 1238.347656 402.890625 1240.289062 403.375 C 1241.257812 403.859375 1242.230469 404.828125 1242.714844 404.828125 L 1326.164062 467.847656 L 1327.132812 467.847656 C 1328.589844 467.363281 1329.558594 466.878906 1330.53125 465.425781 L 1369.828125 396.585938 L 1405.734375 396.585938 L 1361.582031 473.667969 C 1358.1875 479 1355.273438 482.878906 1351.394531 484.332031 C 1347.511719 486.269531 1344.117188 486.753906 1340.234375 486.753906 L 1308.210938 486.753906 C 1307.242188 486.753906 1306.273438 486.269531 1304.332031 485.785156 C 1302.875 485.300781 1300.933594 484.816406 1299.480469 483.847656 C 1298.023438 483.363281 1296.082031 482.394531 1294.628906 481.90625 C 1293.171875 481.421875 1292.6875 480.453125 1292.203125 480.453125 Z M 1208.75 416.949219 " fill-opacity="1" fill-rule="nonzero"/><path fill="#02f900" d="M 1469.289062 488.210938 L 1521.203125 397.554688 L 1557.109375 397.554688 L 1505.195312 488.210938 Z M 1647.835938 488.210938 L 1669.183594 450.882812 L 1537.214844 450.882812 L 1547.890625 432.460938 L 1679.855469 432.460938 L 1699.75 398.042969 L 1735.652344 398.042969 L 1683.738281 488.695312 L 1647.835938 488.695312 Z M 1647.835938 488.210938 " fill-opacity="1" fill-rule="nonzero"/><path fill="#02f900" d="M 1760.882812 488.210938 C 1757 488.210938 1753.605469 487.726562 1749.722656 487.242188 C 1745.839844 486.269531 1742.445312 485.300781 1739.046875 483.363281 C 1735.652344 481.90625 1734.195312 479.484375 1732.742188 477.058594 C 1731.769531 474.636719 1732.257812 471.242188 1733.710938 467.363281 L 1761.367188 419.371094 C 1763.308594 415.492188 1766.703125 412.585938 1771.070312 409.675781 C 1775.4375 407.253906 1780.289062 404.828125 1785.140625 403.375 C 1789.992188 401.917969 1795.328125 399.980469 1800.179688 399.496094 C 1805.03125 398.527344 1809.398438 398.527344 1812.796875 398.527344 L 1949.613281 398.527344 C 1953.496094 398.527344 1956.894531 399.011719 1960.773438 399.496094 C 1965.140625 400.464844 1968.050781 401.433594 1971.449219 403.375 C 1974.84375 404.828125 1976.785156 407.253906 1977.753906 409.675781 C 1978.726562 412.101562 1978.242188 415.492188 1976.785156 419.371094 L 1949.128906 467.363281 C 1947.1875 471.242188 1943.792969 474.152344 1939.425781 477.058594 C 1935.058594 479.484375 1930.207031 481.90625 1925.355469 483.363281 C 1920.503906 484.816406 1915.167969 486.753906 1910.316406 487.242188 C 1904.980469 488.210938 1900.613281 488.210938 1897.699219 488.210938 Z M 1774.464844 459.609375 C 1773.496094 461.0625 1773.496094 462.03125 1774.464844 463.972656 C 1775.4375 464.941406 1776.40625 465.910156 1778.347656 467.363281 C 1779.804688 468.335938 1781.742188 468.820312 1783.199219 469.304688 C 1784.65625 469.789062 1786.597656 469.789062 1787.082031 469.789062 L 1894.304688 469.789062 C 1895.273438 469.789062 1896.246094 469.789062 1899.15625 469.304688 C 1901.582031 468.820312 1904.007812 468.335938 1905.949219 467.363281 C 1908.375 466.394531 1910.800781 465.910156 1912.742188 463.972656 C 1914.683594 462.515625 1916.621094 461.546875 1917.59375 459.609375 L 1937.484375 425.671875 C 1938.457031 424.21875 1938.457031 423.25 1937.484375 421.3125 C 1936.515625 420.339844 1935.542969 419.371094 1933.605469 417.917969 C 1932.148438 416.949219 1930.207031 416.464844 1928.753906 415.976562 C 1927.296875 415.492188 1925.355469 415.492188 1924.871094 415.492188 L 1817.160156 415.492188 C 1816.191406 415.492188 1815.222656 415.492188 1812.308594 415.976562 C 1810.371094 416.464844 1807.457031 416.949219 1805.515625 417.917969 C 1803.089844 418.886719 1800.664062 419.371094 1798.726562 421.3125 C 1796.785156 422.28125 1794.84375 423.734375 1793.875 425.671875 Z M 1774.464844 459.609375 " fill-opacity="1" fill-rule="nonzero"/><path fill="#02f900" d="M 2027.242188 459.609375 C 2026.273438 461.0625 2026.273438 462.03125 2027.242188 463.972656 C 2028.214844 464.941406 2029.183594 465.910156 2031.125 467.363281 C 2033.066406 468.820312 2034.519531 468.820312 2035.976562 469.304688 C 2037.429688 469.789062 2039.371094 469.789062 2040.34375 469.789062 L 2200.933594 469.789062 L 2190.261719 488.210938 L 2014.628906 488.210938 C 2010.746094 488.210938 2007.351562 487.726562 2003.46875 487.242188 C 1999.585938 486.269531 1996.191406 485.300781 1992.796875 483.363281 C 1989.398438 481.90625 1987.945312 479.484375 1986.488281 477.058594 C 1985.515625 474.636719 1986.003906 471.242188 1987.457031 467.363281 L 2015.113281 419.371094 C 2017.054688 415.492188 2020.449219 412.585938 2024.816406 409.675781 C 2029.183594 407.253906 2034.035156 404.828125 2038.886719 403.375 C 2043.738281 401.917969 2049.074219 399.980469 2053.925781 399.496094 C 2058.777344 399.011719 2063.144531 398.527344 2066.542969 398.527344 L 2242.175781 398.527344 L 2231.5 416.949219 L 2070.421875 416.949219 C 2069.453125 416.949219 2067.996094 416.949219 2065.570312 417.433594 C 2063.632812 417.917969 2060.71875 418.402344 2058.777344 419.371094 C 2056.351562 420.339844 2053.925781 420.824219 2051.988281 422.765625 C 2050.046875 423.734375 2048.105469 425.1875 2047.621094 427.128906 Z M 2027.242188 459.609375 " fill-opacity="1" fill-rule="nonzero"/><path fill="#02f900" d="M 2286.8125 448.457031 L 2264.492188 487.726562 L 2228.105469 487.726562 L 2280.019531 397.070312 L 2315.921875 397.070312 L 2298.457031 427.613281 L 2426.058594 397.070312 L 2495.4375 397.070312 L 2328.535156 440.703125 L 2443.039062 487.726562 L 2383.847656 487.726562 Z M 2286.8125 448.457031 " fill-opacity="1" fill-rule="nonzero"/><path fill="#02f900" d="M 2526.972656 459.609375 C 2526.003906 461.0625 2526.003906 462.03125 2526.972656 463.972656 C 2527.945312 464.941406 2528.914062 465.910156 2530.855469 467.363281 C 2532.308594 468.335938 2534.25 468.820312 2535.707031 469.304688 C 2537.164062 469.789062 2539.101562 469.789062 2540.074219 469.789062 L 2700.667969 469.789062 L 2689.992188 488.210938 L 2514.359375 488.210938 C 2510.476562 488.210938 2507.082031 487.726562 2503.199219 487.242188 C 2499.316406 486.269531 2495.921875 485.300781 2492.527344 483.363281 C 2489.128906 481.90625 2487.675781 479.484375 2486.21875 477.058594 C 2485.25 474.636719 2485.734375 471.242188 2487.1875 467.363281 L 2514.84375 419.371094 C 2516.785156 415.492188 2520.179688 412.585938 2524.546875 409.675781 C 2528.914062 407.253906 2533.765625 404.828125 2538.617188 403.375 C 2543.46875 401.917969 2548.804688 399.980469 2553.65625 399.496094 C 2558.511719 399.011719 2562.875 398.527344 2566.273438 398.527344 L 2741.90625 398.527344 L 2731.230469 416.949219 L 2570.152344 416.949219 C 2569.183594 416.949219 2567.726562 416.949219 2565.300781 417.433594 C 2563.363281 417.917969 2560.449219 418.402344 2558.511719 419.371094 C 2556.085938 420.339844 2553.660156 420.824219 2551.71875 422.765625 C 2549.777344 423.734375 2547.835938 425.1875 2547.351562 427.128906 Z M 2721.042969 431.976562 L 2710.371094 450.398438 L 2542.984375 450.398438 L 2553.65625 431.976562 Z M 2721.042969 431.976562 " fill-opacity="1" fill-rule="nonzero"/><path fill="#02f900" d="M 2988.375 397.554688 L 2870.964844 446.035156 L 2846.21875 488.210938 L 2810.316406 488.210938 L 2834.089844 446.035156 L 2771.988281 397.070312 L 2815.652344 397.070312 L 2857.863281 430.035156 L 2937.433594 397.070312 L 2987.40625 397.070312 L 2987.40625 397.554688 Z M 2988.375 397.554688 " fill-opacity="1" fill-rule="nonzero"/><path fill="#02f900" d="M 169.992188 472.210938 C 164.652344 472.210938 161.257812 466.878906 164.167969 462.03125 C 169.019531 454.277344 169.992188 451.367188 177.269531 437.308594 L 189.882812 437.308594 C 189.882812 437.308594 172.902344 427.128906 164.652344 422.765625 C 163.199219 422.28125 162.226562 422.28125 160.773438 422.765625 C 149.128906 427.128906 128.265625 437.308594 128.265625 437.308594 C 128.265625 437.308594 137 437.308594 139.910156 437.308594 C 136.515625 442.640625 128.265625 455.246094 121.472656 466.394531 C 114.195312 478.515625 125.839844 489.179688 142.820312 489.179688 C 142.820312 489.179688 154.949219 489.179688 161.257812 489.179688 C 175.8125 489.179688 203.953125 489.179688 212.6875 489.179688 C 214.628906 489.179688 216.566406 487.726562 217.054688 485.785156 C 218.992188 480.453125 221.417969 476.089844 223.84375 471.242188 L 169.992188 471.242188 Z M 169.992188 472.210938 " fill-opacity="1" fill-rule="nonzero"/><path fill="#02f900" d="M 291.769531 440.21875 L 285.460938 450.398438 L 319.910156 450.398438 L 311.175781 466.878906 C 310.207031 468.820312 307.78125 471.242188 304.871094 471.242188 C 297.59375 471.242188 273.332031 470.757812 262.660156 471.242188 L 271.394531 458.636719 C 271.394531 458.636719 242.28125 476.574219 241.3125 476.574219 C 240.339844 477.058594 240.339844 478.03125 240.339844 478.515625 C 240.339844 479 245.191406 500.328125 245.191406 500.328125 L 251.984375 488.210938 C 268.480469 488.210938 297.105469 488.210938 307.296875 488.210938 C 340.289062 488.210938 332.039062 488.695312 361.636719 439.730469 C 336.890625 440.21875 291.769531 440.21875 291.769531 440.21875 Z M 291.769531 440.21875 " fill-opacity="1" fill-rule="nonzero"/><path fill="#02f900" d="M 374.734375 417.917969 L 385.410156 398.527344 C 385.410156 398.042969 385.410156 397.554688 384.921875 397.554688 C 384.921875 397.554688 261.6875 397.554688 202.011719 397.554688 C 174.84375 397.554688 162.226562 404.828125 155.4375 415.976562 C 165.625 415.976562 187.457031 415.976562 191.824219 415.976562 C 192.792969 412.585938 201.042969 410.644531 204.4375 410.644531 C 223.84375 410.644531 296.621094 410.644531 342.714844 410.644531 C 342.226562 411.613281 338.347656 417.433594 338.347656 417.433594 L 327.1875 417.433594 C 327.1875 417.433594 341.742188 425.1875 351.933594 430.523438 C 352.417969 431.007812 353.871094 431.007812 355.8125 430.523438 C 366 426.644531 386.378906 417.917969 386.378906 417.917969 Z M 374.734375 417.917969 " fill-opacity="1" fill-rule="nonzero"/><path fill="#02f900" d="M 1413.496094 481.90625 C 1419.316406 482.878906 1425.140625 483.363281 1431.449219 482.878906 C 1434.84375 482.878906 1437.269531 482.394531 1440.179688 481.421875 C 1440.664062 481.421875 1441.636719 480.9375 1442.121094 480.453125 C 1443.089844 479.96875 1443.578125 479.484375 1444.0625 478.03125 C 1444.0625 478.515625 1444.0625 478.515625 1444.0625 479 C 1444.0625 480.9375 1444.0625 482.878906 1444.0625 484.816406 C 1444.0625 485.785156 1443.578125 486.753906 1442.605469 488.210938 C 1441.152344 489.179688 1438.726562 490.148438 1437.269531 490.632812 C 1433.386719 491.605469 1430.476562 492.089844 1426.59375 492.089844 C 1421.742188 492.574219 1416.890625 492.089844 1412.039062 491.601562 C 1408.160156 491.117188 1405.246094 490.632812 1401.851562 489.179688 C 1400.882812 488.695312 1400.394531 488.210938 1399.425781 487.726562 C 1398.941406 487.242188 1398.457031 486.269531 1398.457031 485.785156 C 1398.457031 482.394531 1398.457031 479.484375 1398.457031 476.089844 C 1398.457031 475.121094 1398.941406 474.636719 1399.425781 474.152344 C 1400.882812 473.183594 1402.820312 472.210938 1404.277344 471.726562 C 1408.160156 470.757812 1411.554688 470.273438 1415.921875 469.789062 C 1421.257812 469.304688 1426.59375 469.789062 1431.445312 470.273438 C 1434.84375 470.757812 1437.753906 471.242188 1441.152344 472.695312 C 1442.121094 473.183594 1442.605469 473.667969 1443.578125 474.152344 C 1444.546875 475.121094 1444.546875 476.574219 1443.578125 478.03125 C 1443.089844 478.515625 1442.121094 479 1441.152344 479.484375 C 1438.726562 480.9375 1435.328125 481.421875 1432.417969 481.90625 C 1424.65625 483.363281 1411.070312 481.90625 1406.21875 481.421875 C 1407.671875 480.453125 1412.039062 480.9375 1413.496094 481.90625 Z M 1413.496094 481.90625 " fill-opacity="1" fill-rule="nonzero"/><g transform="matrix(1, 0, 0, 1, 3267, 539)"><g clip-path="url(#b945b83136)"><g fill="#142f75" fill-opacity="1"><g transform="translate(0.254615, 26.070068)"><g><path d="M 18.453125 -13.5625 L 7.6875 -13.5625 L 7.6875 -10.03125 L 17.9375 -10.03125 C 19.539062 -10.03125 20.625 -9.753906 21.1875 -9.203125 C 21.757812 -8.660156 22.046875 -7.640625 22.046875 -6.140625 L 22.046875 -3.890625 C 22.046875 -2.398438 21.757812 -1.378906 21.1875 -0.828125 C 20.625 -0.273438 19.539062 0 17.9375 0 L 7.78125 0 C 6.164062 0 5.078125 -0.273438 4.515625 -0.828125 C 3.953125 -1.378906 3.671875 -2.398438 3.671875 -3.890625 L 3.671875 -4.34375 L 7.046875 -5.046875 L 7.046875 -3.09375 L 18.671875 -3.09375 L 18.671875 -6.84375 L 8.421875 -6.84375 C 6.816406 -6.84375 5.734375 -7.117188 5.171875 -7.671875 C 4.617188 -8.222656 4.34375 -9.242188 4.34375 -10.734375 L 4.34375 -12.546875 C 4.34375 -14.046875 4.617188 -15.066406 5.171875 -15.609375 C 5.734375 -16.160156 6.816406 -16.4375 8.421875 -16.4375 L 17.75 -16.4375 C 19.289062 -16.4375 20.351562 -16.171875 20.9375 -15.640625 C 21.53125 -15.117188 21.828125 -14.179688 21.828125 -12.828125 L 21.828125 -12.484375 L 18.453125 -11.703125 Z M 18.453125 -13.5625 "/></g></g></g><g fill="#142f75" fill-opacity="1"><g transform="translate(49.584712, 26.070068)"><g><path d="M 16.5625 -13.59375 L 7.96875 -13.59375 L 7.96875 -9.234375 L 16.5625 -9.234375 C 17.226562 -9.234375 17.679688 -9.328125 17.921875 -9.515625 C 18.171875 -9.710938 18.296875 -10.054688 18.296875 -10.546875 L 18.296875 -12.3125 C 18.296875 -12.78125 18.171875 -13.109375 17.921875 -13.296875 C 17.679688 -13.492188 17.226562 -13.59375 16.5625 -13.59375 Z M 4.203125 0 L 4.203125 -16.4375 L 18.265625 -16.4375 C 19.566406 -16.4375 20.507812 -16.1875 21.09375 -15.6875 C 21.6875 -15.1875 21.984375 -14.375 21.984375 -13.25 L 21.984375 -9.578125 C 21.984375 -8.472656 21.6875 -7.664062 21.09375 -7.15625 C 20.507812 -6.65625 19.566406 -6.40625 18.265625 -6.40625 L 7.96875 -6.40625 L 7.96875 0 Z M 4.203125 0 "/></g></g></g><g fill="#142f75" fill-opacity="1"><g transform="translate(96.814312, 26.070068)"><g><path d="M 3.859375 -12.546875 C 3.859375 -14.046875 4.132812 -15.066406 4.6875 -15.609375 C 5.25 -16.160156 6.332031 -16.4375 7.9375 -16.4375 L 20.03125 -16.4375 C 21.632812 -16.4375 22.710938 -16.160156 23.265625 -15.609375 C 23.828125 -15.066406 24.109375 -14.046875 24.109375 -12.546875 L 24.109375 -3.890625 C 24.109375 -2.390625 23.828125 -1.363281 23.265625 -0.8125 C 22.710938 -0.269531 21.632812 0 20.03125 0 L 7.9375 0 C 6.332031 0 5.25 -0.269531 4.6875 -0.8125 C 4.132812 -1.363281 3.859375 -2.390625 3.859375 -3.890625 Z M 7.6875 -3.09375 L 20.296875 -3.09375 L 20.296875 -13.5 L 7.6875 -13.5 Z M 7.6875 -3.09375 "/></g></g></g><g fill="#142f75" fill-opacity="1"><g transform="translate(148.33826, 26.070068)"><g><path d="M 16.5625 -13.59375 L 7.96875 -13.59375 L 7.96875 -9.015625 L 16.5625 -9.015625 C 17.226562 -9.015625 17.679688 -9.109375 17.921875 -9.296875 C 18.171875 -9.492188 18.296875 -9.835938 18.296875 -10.328125 L 18.296875 -12.3125 C 18.296875 -12.78125 18.171875 -13.109375 17.921875 -13.296875 C 17.679688 -13.492188 17.226562 -13.59375 16.5625 -13.59375 Z M 4.203125 0 L 4.203125 -16.4375 L 18.265625 -16.4375 C 19.566406 -16.4375 20.507812 -16.1875 21.09375 -15.6875 C 21.6875 -15.1875 21.984375 -14.375 21.984375 -13.25 L 21.984375 -9.390625 C 21.984375 -8.285156 21.6875 -7.476562 21.09375 -6.96875 C 20.507812 -6.457031 19.566406 -6.203125 18.265625 -6.203125 L 16.109375 -6.203125 L 23.703125 0 L 18.21875 0 L 11.59375 -6.203125 L 7.96875 -6.203125 L 7.96875 0 Z M 4.203125 0 "/></g></g></g><g fill="#142f75" fill-opacity="1"><g transform="translate(196.874836, 26.070068)"><g><path d="M 11.859375 -13.5 L 11.859375 0 L 8.03125 0 L 8.03125 -13.5 L 0.484375 -13.5 L 0.484375 -16.4375 L 19.4375 -16.4375 L 19.4375 -13.5 Z M 11.859375 -13.5 "/></g></g></g><g fill="#142f75" fill-opacity="1"><g transform="translate(240.339103, 26.070068)"><g><path d="M 18.453125 -13.5625 L 7.6875 -13.5625 L 7.6875 -10.03125 L 17.9375 -10.03125 C 19.539062 -10.03125 20.625 -9.753906 21.1875 -9.203125 C 21.757812 -8.660156 22.046875 -7.640625 22.046875 -6.140625 L 22.046875 -3.890625 C 22.046875 -2.398438 21.757812 -1.378906 21.1875 -0.828125 C 20.625 -0.273438 19.539062 0 17.9375 0 L 7.78125 0 C 6.164062 0 5.078125 -0.273438 4.515625 -0.828125 C 3.953125 -1.378906 3.671875 -2.398438 3.671875 -3.890625 L 3.671875 -4.34375 L 7.046875 -5.046875 L 7.046875 -3.09375 L 18.671875 -3.09375 L 18.671875 -6.84375 L 8.421875 -6.84375 C 6.816406 -6.84375 5.734375 -7.117188 5.171875 -7.671875 C 4.617188 -8.222656 4.34375 -9.242188 4.34375 -10.734375 L 4.34375 -12.546875 C 4.34375 -14.046875 4.617188 -15.066406 5.171875 -15.609375 C 5.734375 -16.160156 6.816406 -16.4375 8.421875 -16.4375 L 17.75 -16.4375 C 19.289062 -16.4375 20.351562 -16.171875 20.9375 -15.640625 C 21.53125 -15.117188 21.828125 -14.179688 21.828125 -12.828125 L 21.828125 -12.484375 L 18.453125 -11.703125 Z M 18.453125 -13.5625 "/></g></g></g></g></g><g clip-path="url(#2b2537a1a7)"><g transform="matrix(1, 0, 0, 1, 3094, 308)"><g clip-path="url(#e4df0288da)"><g clip-path="url(#eeadf5ae39)"><path fill="#000000" d="M 0.292969 0.808594 L 4.042969 0.808594 L 4.042969 283.1875 L 0.292969 283.1875 Z M 0.292969 0.808594 " fill-opacity="1" fill-rule="nonzero"/></g></g></g></g><g clip-path="url(#633c5b53cd)"><g transform="matrix(1, 0, 0, 1, 3066, 406)"><g clip-path="url(#bcd25d08be)"><g clip-path="url(#4812b4eae8)"><path fill="#ffffff" d="M 0.542969 0.078125 L 63.542969 0.078125 L 63.542969 87.933594 L 0.542969 87.933594 Z M 0.542969 0.078125 " fill-opacity="1" fill-rule="nonzero"/></g></g></g></g><g fill="#000000" fill-opacity="1"><g transform="translate(3084.953999, 469.077619)"><g><path d="M 10.640625 -13.703125 L 1.390625 -26.765625 L 6.03125 -26.765625 L 13.09375 -16.453125 L 20.125 -26.765625 L 24.703125 -26.765625 L 15.453125 -13.703125 L 25.21875 0 L 20.578125 0 L 13.09375 -10.90625 L 5.546875 0 L 0.953125 0 Z M 10.640625 -13.703125 "/></g></g></g><g clip-path="url(#58ba696c13)"><g clip-path="url(#a47e3cf90c)"><path fill="url(#4c0c7f9ce8)" d="M 3457 332.605469 L 3269.207031 332.230469 L 3268.851562 510.355469 L 3456.644531 510.730469 Z M 3457 332.605469 " fill-rule="nonzero"/></g></g><g clip-path="url(#4573de7d8f)"><path fill="url(#fac98c157c)" d="M 3244.511719 333.070312 L 3209.800781 333 L 3209.449219 509.976562 L 3244.160156 510.042969 Z M 3244.511719 333.070312 " fill-rule="nonzero"/></g><g clip-path="url(#a367757d24)"><g clip-path="url(#7dac3de49c)"><path fill="url(#0b37e88c70)" d="M 3634.8125 332.90625 L 3447.242188 332.527344 L 3446.996094 455.152344 L 3634.566406 455.53125 Z M 3634.8125 332.90625 " fill-rule="nonzero"/></g></g><g clip-path="url(#721b7c80bf)"><g clip-path="url(#a1d21c0192)"><path fill="url(#695f9e4055)" d="M 3566.808594 444.378906 L 3514.980469 444.277344 L 3514.847656 510.277344 L 3566.679688 510.382812 Z M 3566.808594 444.378906 " fill-rule="nonzero"/></g></g></svg>
